<svg xmlns="http://www.w3.org/2000/svg"  viewBox="0 0 50 50" width="500px" height="500px"><path d="M5.489 24.746L18.425 28.461 15.582 19.619zM44.571 25.524L31.761 22.655 34.073 32.262zM17.676 17.451L29.066 20.002 25.364 4.617zM29.587 22.168L17.643 19.493 20.739 29.126 32.042 32.372zM31.877 34.405L21.476 31.418 25.982 45.435zM33.992 34.691L27.173 47.449 46.751 26.502zM47.226 24.019L26.842 2.208l4.399 18.281 15.799 3.538C47.101 24.015 47.164 24.019 47.226 24.019zM19.161 30.753L2.921 26.089 24.645 47.814zM15.306 17.516L24.239 2.604 3.154 23.689z"/></svg>